<svg xmlns="http://www.w3.org/2000/svg" viewBox="0 0 213.93 118.59"><defs><style>.a{fill:#fff;}.a,.b,.c{fill-rule:evenodd;}.b{fill:#023c91;}.c{fill:#f0001b;}</style></defs><title>Australian Football League logo - Brandlogos.net</title><path class="a" d="M405,511.86c0-32.57,47.78-59.16,107-59.16s107,26.59,107,59.16c0,32.82-47.78,59.43-107,59.43S405,544.69,405,511.86Z" transform="translate(-405.03 -452.7)"/><path class="b" d="M408,511.86c0-31.76,46.42-57.54,104-57.54,57.28,0,104,25.78,104,57.54,0,32-46.7,57.79-104,57.79C454.46,569.65,408,543.88,408,511.86Z" transform="translate(-405.03 -452.7)"/><path class="c" d="M450.65,490.15l-6-2.71c-6.79,7-10.6,15.46-10.6,24.69a24.8,24.8,0,0,0,.27,4.34Zm120.27.81,3.79,29.57h13.85a30.22,30.22,0,0,0,1.35-8.4c0-9.23-4.06-17.65-11.13-25Zm-119.19-9.77h30.4l10.33,32,1.08-32h78.72A92.64,92.64,0,0,0,537.52,466v5.42h-7.86v-6.77l-6.52-.81v11.94h-7.88V463.56h-6.52v12.21h-7.88V463.83l-6.5.81v6.77h-7.88V466C472.63,469,460.69,474.42,451.73,481.19Zm68.7,62.68h-47l-1.91-8.4H453.36l-2.71,6.5C465,553.38,487,560.44,512,560.44c23.34,0,44.24-6.25,58.64-16.56H547.56l-3.25-39.34h-6l1.1,20.09h-19Z" transform="translate(-405.03 -452.7)"/><path class="a" d="M598.88,537.1H551.1L547,484.44h28.78l-14.65,6.25h6l4.06,33.11H595.9Zm-64.34-31.21.54,11.67H515.53V537.1H476.44l-1.9-8.42H450.92l-4.34,8.42H425.66l28.79-46.41H461l-13.84-6.25h31.76l16,47.76h.81l1.35-47.76H543L544,497.2H515.53v8.69Z" transform="translate(-405.03 -452.7)"/><polygon class="b" points="62.45 45.32 61.36 45.32 50.78 66.48 67.05 66.48 62.45 45.32"/><path class="a" d="M588.56,539.54a3.44,3.44,0,0,1,1.63.27c.54,0,.81.54,1.35.81a5.92,5.92,0,0,1,.81,1.35c0,.54.27.81.27,1.36a4.83,4.83,0,0,1-4.06,4.08,3.72,3.72,0,0,1-2.71-1.37,3.44,3.44,0,0,1-1.1-2.71,3.11,3.11,0,0,1,1.1-2.71A3.48,3.48,0,0,1,588.56,539.54Zm0-.81a4.81,4.81,0,0,0-4.08,2.17,7.91,7.91,0,0,0-.54,2.44,4.49,4.49,0,0,0,1.35,3.25,2.76,2.76,0,0,0,1.37,1.1,17.28,17.28,0,0,1,1.9.54,5,5,0,0,0,1.9-.54,2.65,2.65,0,0,0,1.35-1.1,3.65,3.65,0,0,0,1.35-3.25,4.32,4.32,0,0,0-1.08-3.25A4.49,4.49,0,0,0,588.56,538.73Zm-1.9,1.9v5.15H588V543.6h.54l1.08,2.17H591l-1.08-2.17a1.8,1.8,0,0,0,1.08-1.36c0-1.08-.81-1.63-2.17-1.63Zm1.35.81h.54c.81,0,1.08.27,1.08.81s-.27.81-1.08.81H588Zm-76,22c-25.25,0-47.78-7.6-62.18-19.55h-6.52c15.48,13.3,40.46,21.71,68.7,21.71s53.2-8.42,68.68-21.71h-6.52C559.79,555.82,537.24,563.42,512,563.42Zm0-105c-47.24,0-85.52,23.88-85.52,53.47a37.33,37.33,0,0,0,2.44,13.3l4.06-6.79a44.48,44.48,0,0,1-.54-6.23c0-23.34,23.9-43.16,56.74-49.39v5.69h2.17V462.2c4.08-.54,8.15-1.08,12.23-1.35v11.92H506V460.85a39.63,39.63,0,0,1,6-.29,41.34,41.34,0,0,1,6,.29v11.92h2.46V460.85c4.06.27,8.13.81,11.94,1.35v6.23h2.44v-5.69c32.59,6.23,56.74,26,56.74,49.39a44.59,44.59,0,0,1-1.08,8.4h6a30.45,30.45,0,0,0,1.08-8.67C597.52,482.28,559.25,458.39,512,458.39Z" transform="translate(-405.03 -452.7)"/></svg>