<?xml version="1.0" encoding="iso-8859-1"?>
<!-- Generator: Adobe Illustrator 26.0.1, SVG Export Plug-In . SVG Version: 6.00 Build 0)  -->
<svg version="1.1" id="Layer_1" xmlns="http://www.w3.org/2000/svg" xmlns:xlink="http://www.w3.org/1999/xlink" x="0px" y="0px"
	 viewBox="0 0 1000 1000" style="enable-background:new 0 0 1000 1000;" xml:space="preserve">
<g id="watermark_1_">
	<g>
		<g id="watermark" style="opacity:0.61;">
			<g>
				<g>
					<g>
						<g>
							<polygon style="fill:#FFFFFF;" points="421.112,924.528 409.007,952.493 402.615,952.493 390.55,924.528 397.541,924.528 
								406.051,944.503 414.68,924.528 							"/>
						</g>
						<g>
							<path style="fill:#FFFFFF;" d="M442.323,943.185h-16.26c0.599,2.677,2.876,4.315,6.153,4.315
								c2.277,0,3.915-0.679,5.393-2.077l3.316,3.595c-1.997,2.278-4.994,3.476-8.868,3.476c-7.431,0-12.265-4.674-12.265-11.067
								c0-6.432,4.914-11.066,11.466-11.066c6.312,0,11.186,4.235,11.186,11.146C442.443,941.987,442.363,942.666,442.323,943.185
								 M425.983,939.55h10.587c-0.44-2.717-2.478-4.475-5.274-4.475C428.46,935.075,426.422,936.793,425.983,939.55"/>
						</g>
						<g>
							<path style="fill:#FFFFFF;" d="M444.997,941.427c0-6.471,4.994-11.066,11.985-11.066c4.514,0,8.07,1.958,9.628,5.473
								l-4.834,2.597c-1.159-2.038-2.877-2.956-4.834-2.956c-3.156,0-5.633,2.198-5.633,5.952c0,3.756,2.477,5.953,5.633,5.953
								c1.958,0,3.675-0.879,4.834-2.956l4.834,2.637c-1.558,3.436-5.114,5.433-9.628,5.433
								C449.991,952.493,444.997,947.899,444.997,941.427"/>
						</g>
						<g>
							<path style="fill:#FFFFFF;" d="M484.386,951.135c-1.279,0.919-3.157,1.358-5.074,1.358c-5.073,0-8.03-2.597-8.03-7.711
								v-8.829h-3.316v-4.794h3.316v-5.233h6.232v5.233h5.353v4.794h-5.353v8.749c0,1.837,0.998,2.836,2.677,2.836
								c0.918,0,1.837-0.279,2.517-0.799L484.386,951.135z"/>
						</g>
					</g>
					<g>
						<path style="fill:#FFFFFF;" d="M527.157,930.68v5.753c-0.519-0.04-0.918-0.08-1.398-0.08c-3.435,0-5.713,1.877-5.713,5.993
							v10.147h-6.232V931h5.953v2.836C521.284,931.759,523.841,930.68,527.157,930.68"/>
					</g>
					<g>
						<path style="fill:#FFFFFF;" d="M528.954,949.257l2.197-4.874c2.357,1.718,5.873,2.916,9.229,2.916
							c3.836,0,5.393-1.278,5.393-2.996c0-5.233-16.26-1.638-16.26-12.025c0-4.754,3.835-8.709,11.785-8.709
							c3.516,0,7.112,0.839,9.708,2.477l-1.998,4.914c-2.597-1.478-5.273-2.197-7.75-2.197c-3.835,0-5.313,1.438-5.313,3.196
							c0,5.154,16.259,1.598,16.259,11.865c0,4.675-3.875,8.67-11.865,8.67C535.905,952.493,531.43,951.175,528.954,949.257"/>
					</g>
					<g>
						<path style="fill:#FFFFFF;" d="M577.131,943.185h-16.26c0.599,2.677,2.876,4.315,6.153,4.315c2.277,0,3.915-0.679,5.393-2.077
							l3.316,3.595c-1.998,2.278-4.994,3.476-8.869,3.476c-7.431,0-12.265-4.674-12.265-11.067c0-6.432,4.914-11.066,11.466-11.066
							c6.312,0,11.187,4.235,11.187,11.146C577.251,941.987,577.171,942.666,577.131,943.185 M560.791,939.55h10.587
							c-0.439-2.717-2.477-4.475-5.273-4.475C563.268,935.075,561.231,936.793,560.791,939.55"/>
					</g>
					<g>
						<path style="fill:#FFFFFF;" d="M602.337,943.185h-16.26c0.599,2.677,2.876,4.315,6.152,4.315c2.277,0,3.915-0.679,5.393-2.077
							l3.316,3.595c-1.998,2.278-4.994,3.476-8.869,3.476c-7.431,0-12.265-4.674-12.265-11.067c0-6.432,4.914-11.066,11.466-11.066
							c6.312,0,11.186,4.235,11.186,11.146C602.457,941.987,602.377,942.666,602.337,943.185 M585.997,939.55h10.587
							c-0.439-2.717-2.477-4.475-5.273-4.475C588.474,935.075,586.437,936.793,585.997,939.55"/>
					</g>
					<g>
						<polygon style="fill:#FFFFFF;" points="615.838,944.064 612.841,947.02 612.841,952.493 606.61,952.493 606.61,922.85 
							612.841,922.85 612.841,939.629 621.95,931 629.381,931 620.432,940.108 630.18,952.493 622.63,952.493 						"/>
					</g>
					<g>
						<path style="fill:#FFFFFF;" d="M514.371,955.416L514.371,955.416l-6.226-6.226c-0.947,1.107-2.075,2.054-3.339,2.796
							c-0.201,0.15-0.406,0.296-0.616,0.433l6.589,6.589c0.992,0.992,2.601,0.992,3.592,0
							C515.363,958.017,515.363,956.408,514.371,955.416"/>
					</g>
					<g>
						<path style="fill:#FFFFFF;" d="M499.965,929.04c0.48-0.377,1.077-0.612,1.735-0.612c0.091,0,0.181,0.005,0.27,0.013
							c-0.466-0.34-1.041-0.542-1.663-0.542c-0.859,0-1.619,0.392-2.137,0.998c-0.111,0-0.218,0.013-0.328,0.016
							c0.086-0.167,0.139-0.354,0.139-0.555c0-0.509-0.311-0.945-0.752-1.13c0.19,0.275,0.301,0.608,0.301,0.968
							c0,0.267-0.066,0.517-0.176,0.742c-6.119,0.437-10.95,5.527-10.95,11.757c0,6.516,5.283,11.799,11.799,11.799
							c6.517,0,11.8-5.283,11.8-11.799C510.004,934.777,505.644,929.892,499.965,929.04 M495.61,932.114
							c0.947,0,1.837,0.244,2.611,0.674c0.813-0.532,1.785-0.842,2.828-0.842c1.547,0,2.934,0.68,3.883,1.756
							c-0.948-0.826-2.186-1.328-3.541-1.328c-0.977,0-1.895,0.261-2.686,0.716c-0.172,0.1-0.34,0.208-0.499,0.326
							c-0.142-0.104-0.29-0.203-0.444-0.292c-0.803-0.476-1.741-0.749-2.743-0.749c-0.653,0-1.279,0.117-1.86,0.331
							C493.895,932.328,494.727,932.114,495.61,932.114 M503.858,941.785c0.25,0.664,0.394,1.38,0.394,2.131
							c0,3.34-2.707,6.047-6.047,6.047c-3.339,0-6.047-2.707-6.047-6.047c0-0.751,0.143-1.467,0.394-2.131
							c-1.35-0.831-2.253-2.317-2.253-4.019c0-2.607,2.114-4.72,4.72-4.72c1.23,0,2.346,0.474,3.186,1.244
							c0.84-0.77,1.956-1.244,3.186-1.244c2.607,0,4.72,2.113,4.72,4.72C506.111,939.467,505.208,940.954,503.858,941.785"/>
					</g>
					<g>
						<path style="fill:#FFFFFF;" d="M503.627,937.351c0,1.082-0.879,1.961-1.961,1.961c-1.082,0-1.961-0.879-1.961-1.961
							s0.879-1.961,1.961-1.961c0.22,0,0.428,0.037,0.625,0.102c-0.065,0.135-0.099,0.287-0.099,0.445
							c0,0.595,0.482,1.076,1.077,1.076c0.11,0,0.217-0.017,0.318-0.048C503.613,937.089,503.627,937.218,503.627,937.351"/>
					</g>
					<g>
						<path style="fill:#FFFFFF;" d="M496.201,937.351c0,0.818-0.665,1.482-1.483,1.482c-0.818,0-1.483-0.664-1.483-1.482
							s0.665-1.483,1.483-1.483c0.166,0,0.324,0.027,0.473,0.077c-0.049,0.102-0.075,0.217-0.075,0.337
							c0,0.449,0.364,0.814,0.814,0.814c0.083,0,0.164-0.013,0.241-0.036C496.191,937.153,496.201,937.251,496.201,937.351"/>
					</g>
					<g>
						<g>
							<g>
								<rect x="484.56" y="939.024" style="fill:#FFFFFF;" width="1.34" height="1.34"/>
							</g>
							<g>
								<rect x="510.51" y="939.024" style="fill:#FFFFFF;" width="1.34" height="1.34"/>
							</g>
							<g>
								<path style="fill:#FFFFFF;" d="M511.332,939.572h-0.304c0-7.07-5.752-12.823-12.823-12.823
									c-7.07,0-12.823,5.753-12.823,12.823h-0.305c0-3.506,1.365-6.803,3.845-9.282c2.479-2.48,5.776-3.845,9.282-3.845
									c3.507,0,6.803,1.365,9.283,3.845C509.966,932.769,511.332,936.065,511.332,939.572"/>
							</g>
						</g>
						<g>
							<rect x="497.534" y="925.927" style="fill:#FFFFFF;" width="1.34" height="1.34"/>
						</g>
						<g>
							<rect x="489.006" y="926.445" style="fill:#FFFFFF;" width="18.397" height="0.304"/>
						</g>
						<g>
							<path style="fill:#FFFFFF;" d="M489.494,926.658c0,0.235-0.191,0.427-0.427,0.427c-0.235,0-0.426-0.191-0.426-0.427
								s0.191-0.427,0.426-0.427C489.303,926.231,489.494,926.422,489.494,926.658"/>
						</g>
						<g>
							<path style="fill:#FFFFFF;" d="M507.829,926.658c0,0.235-0.191,0.427-0.427,0.427c-0.235,0-0.426-0.191-0.426-0.427
								s0.191-0.427,0.426-0.427C507.639,926.231,507.829,926.422,507.829,926.658"/>
						</g>
					</g>
				</g>
				<g>
					<path style="fill:#FFFFFF;" d="M640.109,951.171c0,3.395-5.146,3.395-5.146,0C634.963,947.779,640.109,947.779,640.109,951.171
						z"/>
				</g>
				<g>
					<g>
						<g>
							<path style="fill:#FFFFFF;" d="M307.849,936.236l3.859,13.253l4.038-13.253h4.823l-6.145,17.721h-5.073l-1.822-5.216
								l-1.572-5.896l-1.571,5.896l-1.822,5.216h-5.073l-6.18-17.721h4.858l4.038,13.253l3.822-13.253H307.849z"/>
						</g>
						<g>
							<path style="fill:#FFFFFF;" d="M340.449,936.236l3.859,13.253l4.038-13.253h4.823l-6.145,17.721h-5.073l-1.822-5.216
								l-1.571-5.896l-1.572,5.896l-1.822,5.216h-5.073l-6.18-17.721h4.858l4.038,13.253l3.822-13.253H340.449z"/>
						</g>
						<g>
							<path style="fill:#FFFFFF;" d="M373.048,936.236l3.859,13.253l4.038-13.253h4.823l-6.145,17.721h-5.073l-1.822-5.216
								l-1.572-5.896l-1.571,5.896l-1.822,5.216h-5.073l-6.18-17.721h4.858l4.038,13.253l3.822-13.253H373.048z"/>
						</g>
					</g>
					<g>
						<path style="fill:#FFFFFF;" d="M393.123,951.412c0,3.395-5.146,3.395-5.146,0C387.977,948.02,393.123,948.02,393.123,951.412z
							"/>
					</g>
					<g>
						<path style="fill:#FFFFFF;" d="M658.296,951.171c-2.036,2.001-4.177,2.787-6.787,2.787c-5.108,0-9.361-3.072-9.361-9.323
							c0-6.251,4.253-9.326,9.361-9.326c2.502,0,4.43,0.716,6.359,2.609l-2.752,2.894c-1.036-0.931-2.321-1.393-3.534-1.393
							c-2.929,0-5.073,2.144-5.073,5.216c0,3.357,2.286,5.143,5,5.143c1.393,0,2.787-0.393,3.857-1.463L658.296,951.171z"/>
					</g>
					<g>
						<path style="fill:#FFFFFF;" d="M678.097,944.777c0,5.073-3.465,9.181-9.181,9.181c-5.716,0-9.146-4.107-9.146-9.181
							c0-5.038,3.502-9.181,9.111-9.181S678.097,939.739,678.097,944.777z M664.128,944.777c0,2.679,1.609,5.181,4.788,5.181
							c3.179,0,4.788-2.502,4.788-5.181c0-2.644-1.859-5.216-4.788-5.216C665.772,939.561,664.128,942.133,664.128,944.777z"/>
					</g>
					<g>
						<path style="fill:#FFFFFF;" d="M692.828,953.958v-9.431c0-2.324-1.216-4.43-3.61-4.43c-2.356,0-3.75,2.106-3.75,4.43v9.431
							h-4.36v-17.649h4.038l0.323,2.144c0.928-1.786,2.964-2.429,4.643-2.429c2.109,0,4.218,0.858,5.216,3.287
							c1.574-2.502,3.61-3.217,5.896-3.217c5,0,7.467,3.075,7.467,8.36v9.504h-4.361v-9.504c0-2.321-0.963-4.288-3.322-4.288
							c-2.356,0-3.822,2.036-3.822,4.36v9.431H692.828z"/>
					</g>
				</g>
			</g>
		</g>
		<g style="opacity:0.61;">
			<g>
				<g>
					<path style="fill:#FFFFFF;" d="M708.973,859.493c-0.013-2.665-2.087-4.618-4.766-4.659c-2.011-0.031-1.81,0.261-1.815-1.887
						c-0.006-2.389-0.015-4.778,0.006-7.166c0.007-0.824-0.243-1.505-0.787-2.125c-5.098-5.81-10.184-11.63-15.281-17.441
						c-0.262-0.299-0.599-0.532-0.901-0.796c-13.528,0-27.055,0-40.583,0c-1.729,0.639-2.482,1.889-2.478,3.72
						c0.021,8.159,0.009,16.318,0.008,24.478c0,1.21-0.007,1.281-1.197,1.201c-3.258-0.221-5.477,2.147-5.436,5.426
						c0.096,7.568,0.028,15.137,0.031,22.706c0.001,3.44,1.887,5.32,5.333,5.331c1.267,0.004,1.268,0.004,1.268,1.306
						c0.001,4.831-0.002,9.662,0.002,14.493c0.002,2.595,1.262,3.855,3.85,3.855c17.446,0.001,34.891,0.001,52.337,0
						c2.543,0,3.822-1.268,3.824-3.799c0.005-4.912,0.001-9.823,0.003-14.735c0-1.115,0.005-1.112,1.131-1.121
						c0.589-0.005,1.177,0.017,1.761-0.127c2.169-0.535,3.68-2.273,3.689-4.503C709.007,875.597,709.011,867.545,708.973,859.493z
						 M647.034,828.716c11.619-0.001,23.237-0.001,34.856,0c1.193,0,1.206,0.015,1.207,1.222c0.001,4.884-0.002,9.767,0.002,14.651
						c0.001,1.765,0.543,2.305,2.307,2.306c4.159,0.003,8.318,0,12.477,0.003c0.997,0.001,1.044,0.046,1.046,1.052
						c0.006,1.932,0.005,3.864,0,5.796c-0.003,1.038-0.051,1.085-1.098,1.085c-8.479,0.002-16.958,0.001-25.438,0.001
						c-8.452,0-16.905,0-25.357,0c-1.198,0-1.202-0.003-1.202-1.221c-0.001-7.889-0.001-15.778,0-23.667
						C645.835,828.724,645.844,828.716,647.034,828.716z M697.728,903.645c-8.454,0.001-16.908,0.001-25.362,0.001
						c-8.427,0-16.854,0.001-25.281,0c-1.245,0-1.249-0.003-1.249-1.262c-0.001-4.348-0.003-8.696,0.001-13.043
						c0.001-1.01,0.051-1.059,1.041-1.059c16.989-0.002,33.977-0.002,50.966,0c1.041,0,1.086,0.044,1.087,1.094
						c0.003,4.348,0.003,8.696,0.001,13.043C698.931,903.634,698.92,903.645,697.728,903.645z"/>
				</g>
				<g>
					<g>
						<rect x="668.546" y="828.478" style="fill:#FFFFFF;" width="3.825" height="2.295"/>
					</g>
					<g>
						<rect x="664.722" y="830.773" style="fill:#FFFFFF;" width="3.825" height="2.295"/>
					</g>
					<g>
						<rect x="668.546" y="833.068" style="fill:#FFFFFF;" width="3.825" height="2.295"/>
					</g>
					<g>
						<rect x="664.722" y="835.363" style="fill:#FFFFFF;" width="3.825" height="2.295"/>
					</g>
					<g>
						<rect x="668.546" y="837.658" style="fill:#FFFFFF;" width="3.825" height="2.295"/>
					</g>
					<g>
						<rect x="664.722" y="839.953" style="fill:#FFFFFF;" width="3.825" height="2.295"/>
					</g>
					<g>
						<rect x="668.546" y="842.247" style="fill:#FFFFFF;" width="3.825" height="2.295"/>
					</g>
					<g>
						<rect x="664.722" y="844.542" style="fill:#FFFFFF;" width="3.825" height="2.295"/>
					</g>
					<g>
						<rect x="668.546" y="846.837" style="fill:#FFFFFF;" width="3.825" height="2.295"/>
					</g>
					<g>
						<rect x="664.722" y="849.132" style="fill:#FFFFFF;" width="3.825" height="2.295"/>
					</g>
					<g>
						<rect x="668.546" y="851.427" style="fill:#FFFFFF;" width="3.825" height="2.295"/>
					</g>
					<g>
						<rect x="664.722" y="853.722" style="fill:#FFFFFF;" width="3.825" height="2.295"/>
					</g>
				</g>
			</g>
			<g>
				<path style="fill:#FFFFFF;" d="M364.231,859.493c-0.013-2.665-2.087-4.618-4.766-4.659c-2.011-0.031-1.81,0.261-1.815-1.887
					c-0.006-2.389-0.015-4.778,0.006-7.166c0.007-0.824-0.243-1.505-0.787-2.125c-5.098-5.81-10.184-11.63-15.281-17.441
					c-0.262-0.299-0.599-0.532-0.901-0.796c-13.528,0-27.055,0-40.583,0c-1.729,0.639-2.482,1.889-2.478,3.72
					c0.021,8.159,0.009,16.318,0.008,24.478c0,1.21-0.007,1.281-1.197,1.201c-3.258-0.221-5.477,2.147-5.436,5.426
					c0.096,7.568,0.028,15.137,0.031,22.706c0.001,3.44,1.887,5.32,5.333,5.331c1.267,0.004,1.268,0.004,1.268,1.306
					c0.001,4.831-0.002,9.662,0.002,14.493c0.002,2.595,1.262,3.855,3.85,3.855c17.446,0.001,34.891,0.001,52.337,0
					c2.543,0,3.822-1.268,3.824-3.799c0.005-4.912,0.001-9.823,0.003-14.735c0-1.115,0.004-1.112,1.131-1.121
					c0.589-0.005,1.177,0.017,1.761-0.127c2.169-0.535,3.68-2.273,3.689-4.503C364.264,875.597,364.269,867.545,364.231,859.493z
					 M302.292,828.716c11.619-0.001,23.237-0.001,34.856,0c1.192,0,1.206,0.015,1.207,1.222c0.001,4.884-0.001,9.767,0.002,14.651
					c0.001,1.765,0.543,2.305,2.307,2.306c4.159,0.003,8.318,0,12.477,0.003c0.997,0.001,1.044,0.046,1.046,1.052
					c0.006,1.932,0.005,3.864,0,5.796c-0.003,1.038-0.051,1.085-1.098,1.085c-8.479,0.002-16.958,0.001-25.438,0.001
					c-8.452,0-16.905,0-25.357,0c-1.198,0-1.202-0.003-1.202-1.221c-0.001-7.889-0.001-15.778,0-23.667
					C301.093,828.724,301.102,828.716,302.292,828.716z M352.985,903.645c-8.454,0.001-16.908,0.001-25.362,0.001
					c-8.427,0-16.854,0.001-25.281,0c-1.245,0-1.249-0.003-1.249-1.262c-0.001-4.348-0.003-8.696,0.001-13.043
					c0.001-1.01,0.051-1.059,1.041-1.059c16.989-0.002,33.977-0.002,50.966,0c1.041,0,1.086,0.044,1.087,1.094
					c0.003,4.348,0.003,8.696,0.001,13.043C354.188,903.634,354.177,903.645,352.985,903.645z"/>
			</g>
			<g>
				<path style="fill:#FFFFFF;" d="M303.581,879.891v-17.193h6.051c0.816,0,1.581,0.132,2.293,0.396
					c0.712,0.264,1.333,0.636,1.861,1.117c0.527,0.48,0.944,1.053,1.248,1.717c0.304,0.665,0.456,1.397,0.456,2.198
					c0,0.816-0.152,1.557-0.456,2.221s-0.721,1.236-1.248,1.717c-0.529,0.48-1.149,0.852-1.861,1.117
					c-0.713,0.264-1.477,0.396-2.293,0.396h-2.809v6.315H303.581z M309.68,870.503c0.848,0,1.489-0.241,1.921-0.721
					c0.432-0.48,0.648-1.032,0.648-1.656c0-0.304-0.052-0.601-0.156-0.889c-0.105-0.288-0.264-0.54-0.48-0.756
					c-0.216-0.217-0.484-0.388-0.805-0.516c-0.32-0.129-0.696-0.193-1.128-0.193h-2.857v4.731H309.68z"/>
				<path style="fill:#FFFFFF;" d="M317.796,862.699h3.77l6.916,11.526h0.191l-0.191-3.314v-8.212h3.217v17.193h-3.409l-7.3-12.174
					h-0.191l0.191,3.314v8.86h-3.193V862.699z"/>
				<path style="fill:#FFFFFF;" d="M343.08,870.454h8.429c0.048,0.193,0.087,0.425,0.12,0.697c0.031,0.272,0.048,0.544,0.048,0.816
					c0,1.104-0.167,2.145-0.504,3.121c-0.336,0.977-0.865,1.849-1.585,2.618c-0.768,0.817-1.69,1.449-2.761,1.897
					c-1.073,0.448-2.298,0.672-3.674,0.672c-1.249,0-2.426-0.224-3.53-0.672c-1.104-0.447-2.065-1.072-2.881-1.873
					c-0.816-0.8-1.465-1.749-1.945-2.845c-0.48-1.097-0.72-2.293-0.72-3.59c0-1.296,0.24-2.493,0.72-3.589s1.129-2.045,1.945-2.845
					c0.816-0.8,1.777-1.425,2.881-1.873c1.104-0.448,2.281-0.672,3.53-0.672c1.392,0,2.637,0.24,3.734,0.72
					c1.097,0.48,2.036,1.144,2.821,1.993l-2.232,2.185c-0.562-0.592-1.185-1.044-1.874-1.357s-1.513-0.468-2.473-0.468
					c-0.786,0-1.53,0.14-2.234,0.421c-0.705,0.28-1.321,0.676-1.85,1.188c-0.527,0.512-0.949,1.133-1.259,1.861
					c-0.312,0.728-0.469,1.541-0.469,2.437c0,0.897,0.157,1.709,0.469,2.438c0.311,0.728,0.735,1.349,1.271,1.861
					c0.536,0.512,1.156,0.909,1.862,1.188c0.704,0.281,1.457,0.421,2.258,0.421c0.911,0,1.684-0.132,2.317-0.396
					c0.632-0.264,1.171-0.604,1.62-1.021c0.321-0.288,0.598-0.652,0.829-1.092s0.412-0.932,0.541-1.477h-5.404V870.454z"/>
			</g>
			<g>
				<path style="fill:#FFFFFF;" d="M443.437,859.493c-0.013-2.665-2.087-4.618-4.766-4.659c-2.011-0.031-1.81,0.261-1.815-1.887
					c-0.006-2.389-0.015-4.778,0.006-7.166c0.007-0.824-0.243-1.505-0.787-2.125c-5.098-5.81-10.184-11.63-15.281-17.441
					c-0.262-0.299-0.599-0.532-0.901-0.796c-13.528,0-27.055,0-40.583,0c-1.729,0.639-2.482,1.889-2.478,3.72
					c0.021,8.159,0.009,16.318,0.008,24.478c0,1.21-0.007,1.281-1.197,1.201c-3.258-0.221-5.477,2.147-5.436,5.426
					c0.096,7.568,0.028,15.137,0.031,22.706c0.001,3.44,1.887,5.32,5.333,5.331c1.267,0.004,1.268,0.004,1.268,1.306
					c0.001,4.831-0.002,9.662,0.002,14.493c0.002,2.595,1.262,3.855,3.85,3.855c17.446,0.001,34.891,0.001,52.337,0
					c2.543,0,3.822-1.268,3.824-3.799c0.005-4.912,0.001-9.823,0.003-14.735c0-1.115,0.004-1.112,1.131-1.121
					c0.589-0.005,1.177,0.017,1.761-0.127c2.169-0.535,3.68-2.273,3.689-4.503C443.47,875.597,443.475,867.545,443.437,859.493z
					 M381.498,828.716c11.619-0.001,23.237-0.001,34.856,0c1.192,0,1.206,0.015,1.207,1.222c0.001,4.884-0.001,9.767,0.002,14.651
					c0.001,1.765,0.543,2.305,2.307,2.306c4.159,0.003,8.318,0,12.477,0.003c0.997,0.001,1.044,0.046,1.046,1.052
					c0.006,1.932,0.005,3.864,0,5.796c-0.003,1.038-0.051,1.085-1.098,1.085c-8.479,0.002-16.958,0.001-25.438,0.001
					c-8.452,0-16.905,0-25.357,0c-1.198,0-1.202-0.003-1.202-1.221c-0.001-7.889-0.001-15.778,0-23.667
					C380.299,828.724,380.308,828.716,381.498,828.716z M432.192,903.645c-8.454,0.001-16.908,0.001-25.362,0.001
					c-8.427,0-16.854,0.001-25.281,0c-1.245,0-1.249-0.003-1.249-1.262c-0.001-4.348-0.002-8.696,0.001-13.043
					c0.001-1.01,0.051-1.059,1.041-1.059c16.989-0.002,33.977-0.002,50.966,0c1.041,0,1.086,0.044,1.087,1.094
					c0.003,4.348,0.003,8.696,0.001,13.043C433.394,903.634,433.384,903.645,432.192,903.645z"/>
			</g>
			<g>
				<path style="fill:#FFFFFF;" d="M402.272,862.699h3.698l6.46,17.193h-3.578l-1.416-4.106h-6.628l-1.417,4.106h-3.578
					L402.272,862.699z M406.379,872.808l-1.537-4.298l-0.625-2.089h-0.192l-0.625,2.089l-1.537,4.298H406.379z"/>
				<path style="fill:#FFFFFF;" d="M415.815,866.541c-0.273,0-0.533-0.052-0.781-0.156c-0.248-0.104-0.465-0.248-0.648-0.432
					c-0.184-0.184-0.328-0.396-0.432-0.636c-0.105-0.241-0.156-0.504-0.156-0.793s0.052-0.552,0.156-0.793
					c0.104-0.24,0.248-0.452,0.432-0.636c0.184-0.184,0.4-0.328,0.648-0.432c0.248-0.104,0.508-0.156,0.781-0.156
					c0.56,0,1.041,0.196,1.441,0.588c0.4,0.393,0.601,0.869,0.601,1.429c0,0.56-0.201,1.037-0.601,1.428
					C416.856,866.345,416.375,866.541,415.815,866.541z M414.255,879.891v-11.766h3.145v11.766H414.255z"/>
			</g>
			<g>
				<path style="fill:#FFFFFF;" d="M524.043,859.493c-0.013-2.665-2.087-4.618-4.766-4.659c-2.011-0.031-1.81,0.261-1.815-1.887
					c-0.006-2.389-0.015-4.778,0.006-7.166c0.007-0.824-0.243-1.505-0.787-2.125c-5.098-5.81-10.184-11.63-15.281-17.441
					c-0.262-0.299-0.599-0.532-0.901-0.796c-13.528,0-27.055,0-40.583,0c-1.729,0.639-2.482,1.889-2.478,3.72
					c0.021,8.159,0.009,16.318,0.008,24.478c0,1.21-0.007,1.281-1.197,1.201c-3.258-0.221-5.477,2.147-5.436,5.426
					c0.096,7.568,0.028,15.137,0.031,22.706c0.001,3.44,1.887,5.32,5.333,5.331c1.267,0.004,1.268,0.004,1.268,1.306
					c0.001,4.831-0.002,9.662,0.002,14.493c0.002,2.595,1.262,3.855,3.85,3.855c17.446,0.001,34.891,0.001,52.337,0
					c2.543,0,3.822-1.268,3.824-3.799c0.005-4.912,0.001-9.823,0.003-14.735c0-1.115,0.004-1.112,1.131-1.121
					c0.589-0.005,1.177,0.017,1.761-0.127c2.169-0.535,3.68-2.273,3.689-4.503C524.076,875.597,524.081,867.545,524.043,859.493z
					 M462.104,828.716c11.619-0.001,23.237-0.001,34.856,0c1.192,0,1.206,0.015,1.207,1.222c0.001,4.884-0.001,9.767,0.002,14.651
					c0.001,1.765,0.543,2.305,2.307,2.306c4.159,0.003,8.318,0,12.477,0.003c0.997,0.001,1.044,0.046,1.046,1.052
					c0.006,1.932,0.005,3.864,0,5.796c-0.003,1.038-0.051,1.085-1.098,1.085c-8.479,0.002-16.958,0.001-25.438,0.001
					c-8.452,0-16.905,0-25.357,0c-1.198,0-1.202-0.003-1.202-1.221c-0.001-7.889-0.001-15.778,0-23.667
					C460.905,828.724,460.914,828.716,462.104,828.716z M512.798,903.645c-8.454,0.001-16.908,0.001-25.362,0.001
					c-8.427,0-16.854,0.001-25.281,0c-1.245,0-1.249-0.003-1.249-1.262c-0.001-4.348-0.002-8.696,0.001-13.043
					c0.001-1.01,0.051-1.059,1.041-1.059c16.989-0.002,33.977-0.002,50.966,0c1.041,0,1.086,0.044,1.087,1.094
					c0.003,4.348,0.003,8.696,0.001,13.043C514,903.634,513.989,903.645,512.798,903.645z"/>
			</g>
			<g>
				<path style="fill:#FFFFFF;" d="M470.308,880.275c-0.737,0-1.441-0.104-2.113-0.312c-0.672-0.208-1.289-0.52-1.849-0.936
					c-0.56-0.416-1.048-0.925-1.464-1.525c-0.417-0.601-0.745-1.301-0.985-2.101l3.049-1.2c0.224,0.864,0.616,1.581,1.177,2.149
					s1.297,0.852,2.209,0.852c0.336,0,0.66-0.044,0.973-0.132c0.312-0.087,0.592-0.216,0.84-0.384
					c0.248-0.168,0.444-0.38,0.589-0.636c0.144-0.256,0.216-0.552,0.216-0.888c0-0.32-0.056-0.608-0.168-0.865
					c-0.112-0.255-0.3-0.495-0.564-0.72c-0.264-0.224-0.609-0.44-1.033-0.648c-0.424-0.208-0.948-0.424-1.572-0.648l-1.056-0.384
					c-0.465-0.16-0.933-0.376-1.405-0.648c-0.472-0.272-0.9-0.6-1.284-0.985c-0.385-0.384-0.701-0.836-0.949-1.357
					c-0.249-0.52-0.372-1.108-0.372-1.765c0-0.672,0.132-1.301,0.396-1.885c0.264-0.584,0.64-1.096,1.129-1.537
					c0.488-0.44,1.072-0.784,1.753-1.032c0.681-0.248,1.437-0.372,2.269-0.372c0.864,0,1.612,0.116,2.245,0.348
					c0.633,0.232,1.168,0.528,1.609,0.888c0.44,0.36,0.796,0.757,1.068,1.188c0.272,0.433,0.472,0.84,0.601,1.225l-2.857,1.2
					c-0.161-0.48-0.453-0.913-0.876-1.297c-0.425-0.384-1.005-0.576-1.741-0.576c-0.704,0-1.289,0.164-1.753,0.492
					c-0.465,0.329-0.697,0.757-0.697,1.285c0,0.512,0.224,0.949,0.672,1.309c0.448,0.36,1.161,0.708,2.137,1.044l1.081,0.36
					c0.688,0.241,1.316,0.517,1.885,0.828c0.568,0.312,1.056,0.684,1.465,1.117c0.408,0.433,0.72,0.925,0.936,1.477
					c0.217,0.552,0.324,1.189,0.324,1.909c0,0.897-0.18,1.669-0.54,2.317c-0.36,0.648-0.82,1.181-1.38,1.597
					c-0.561,0.416-1.193,0.728-1.897,0.936C471.668,880.172,470.98,880.275,470.308,880.275z"/>
				<path style="fill:#FFFFFF;" d="M477.175,862.699h3.506l3.554,10.349l0.625,2.209h0.192l0.672-2.209l3.698-10.349h3.506
					l-6.268,17.193h-3.409L477.175,862.699z"/>
				<path style="fill:#FFFFFF;" d="M502.388,870.454h8.428c0.048,0.193,0.088,0.425,0.12,0.697c0.033,0.272,0.049,0.544,0.049,0.816
					c0,1.104-0.169,2.145-0.505,3.121c-0.336,0.977-0.864,1.849-1.585,2.618c-0.768,0.817-1.688,1.449-2.761,1.897
					c-1.073,0.448-2.298,0.672-3.674,0.672c-1.249,0-2.425-0.224-3.529-0.672c-1.105-0.447-2.066-1.072-2.882-1.873
					c-0.816-0.8-1.465-1.749-1.945-2.845c-0.48-1.097-0.72-2.293-0.72-3.59c0-1.296,0.241-2.493,0.72-3.589
					c0.48-1.097,1.129-2.045,1.945-2.845c0.816-0.8,1.777-1.425,2.882-1.873c1.104-0.448,2.28-0.672,3.529-0.672
					c1.392,0,2.637,0.24,3.734,0.72c1.097,0.48,2.038,1.144,2.822,1.993l-2.234,2.185c-0.56-0.592-1.185-1.044-1.874-1.357
					c-0.687-0.312-1.512-0.468-2.473-0.468c-0.784,0-1.528,0.14-2.234,0.421c-0.704,0.28-1.321,0.676-1.848,1.188
					c-0.528,0.512-0.949,1.133-1.261,1.861c-0.312,0.728-0.468,1.541-0.468,2.437c0,0.897,0.156,1.709,0.468,2.438
					c0.312,0.728,0.737,1.349,1.273,1.861c0.536,0.512,1.156,0.909,1.86,1.188c0.705,0.281,1.457,0.421,2.258,0.421
					c0.913,0,1.685-0.132,2.317-0.396c0.632-0.264,1.173-0.604,1.621-1.021c0.32-0.288,0.596-0.652,0.828-1.092
					c0.233-0.44,0.412-0.932,0.541-1.477h-5.402V870.454z"/>
			</g>
			<g>
				<path style="fill:#FFFFFF;" d="M602.976,859.493c-0.013-2.665-2.087-4.618-4.766-4.659c-2.011-0.031-1.81,0.261-1.815-1.887
					c-0.006-2.389-0.015-4.778,0.006-7.166c0.007-0.824-0.243-1.505-0.787-2.125c-5.098-5.81-10.184-11.63-15.281-17.441
					c-0.262-0.299-0.599-0.532-0.901-0.796c-13.528,0-27.055,0-40.583,0c-1.729,0.639-2.482,1.889-2.478,3.72
					c0.021,8.159,0.009,16.318,0.008,24.478c0,1.21-0.007,1.281-1.197,1.201c-3.258-0.221-5.477,2.147-5.436,5.426
					c0.096,7.568,0.028,15.137,0.031,22.706c0.001,3.44,1.887,5.32,5.333,5.331c1.267,0.004,1.268,0.004,1.268,1.306
					c0.001,4.831-0.002,9.662,0.002,14.493c0.002,2.595,1.262,3.855,3.85,3.855c17.446,0.001,34.891,0.001,52.337,0
					c2.543,0,3.822-1.268,3.824-3.799c0.005-4.912,0.001-9.823,0.003-14.735c0-1.115,0.005-1.112,1.131-1.121
					c0.589-0.005,1.178,0.017,1.761-0.127c2.169-0.535,3.68-2.273,3.689-4.503C603.01,875.597,603.015,867.545,602.976,859.493z
					 M541.037,828.716c11.619-0.001,23.237-0.001,34.856,0c1.193,0,1.206,0.015,1.207,1.222c0.001,4.884-0.002,9.767,0.002,14.651
					c0.001,1.765,0.543,2.305,2.307,2.306c4.159,0.003,8.318,0,12.477,0.003c0.997,0.001,1.044,0.046,1.046,1.052
					c0.006,1.932,0.005,3.864,0,5.796c-0.003,1.038-0.051,1.085-1.098,1.085c-8.479,0.002-16.958,0.001-25.438,0.001
					c-8.452,0-16.905,0-25.357,0c-1.198,0-1.202-0.003-1.202-1.221c-0.001-7.889-0.001-15.778,0-23.667
					C539.838,828.724,539.847,828.716,541.037,828.716z M591.731,903.645c-8.454,0.001-16.908,0.001-25.362,0.001
					c-8.427,0-16.854,0.001-25.281,0c-1.245,0-1.249-0.003-1.249-1.262c-0.001-4.348-0.003-8.696,0.001-13.043
					c0.001-1.01,0.051-1.059,1.041-1.059c16.989-0.002,33.977-0.002,50.966,0c1.041,0,1.086,0.044,1.087,1.094
					c0.003,4.348,0.003,8.696,0.001,13.043C592.934,903.634,592.923,903.645,591.731,903.645z"/>
			</g>
			<g>
				<path style="fill:#FFFFFF;" d="M549.998,865.772v3.986h6.891v3.074h-6.891v3.986h7.659v3.073h-10.901v-17.193h10.901v3.073
					H549.998z"/>
				<path style="fill:#FFFFFF;" d="M560.635,879.891v-17.193h6.051c0.816,0,1.581,0.132,2.293,0.396
					c0.712,0.264,1.333,0.636,1.861,1.117c0.528,0.48,0.944,1.053,1.249,1.717c0.304,0.665,0.456,1.397,0.456,2.198
					c0,0.816-0.152,1.557-0.456,2.221c-0.305,0.664-0.721,1.236-1.249,1.717c-0.528,0.48-1.149,0.852-1.861,1.117
					c-0.713,0.264-1.477,0.396-2.293,0.396h-2.809v6.315H560.635z M566.735,870.503c0.848,0,1.489-0.241,1.921-0.721
					c0.432-0.48,0.648-1.032,0.648-1.656c0-0.304-0.052-0.601-0.156-0.889c-0.105-0.288-0.264-0.54-0.48-0.756
					c-0.216-0.217-0.484-0.388-0.805-0.516c-0.32-0.129-0.696-0.193-1.128-0.193h-2.857v4.731H566.735z"/>
				<path style="fill:#FFFFFF;" d="M580.109,880.275c-0.737,0-1.441-0.104-2.113-0.312c-0.672-0.208-1.289-0.52-1.849-0.936
					c-0.56-0.416-1.049-0.925-1.465-1.525c-0.416-0.601-0.744-1.301-0.985-2.101l3.049-1.2c0.224,0.864,0.616,1.581,1.177,2.149
					c0.56,0.568,1.296,0.852,2.209,0.852c0.336,0,0.66-0.044,0.973-0.132c0.312-0.087,0.592-0.216,0.84-0.384
					c0.248-0.168,0.444-0.38,0.588-0.636c0.144-0.256,0.217-0.552,0.217-0.888c0-0.32-0.057-0.608-0.168-0.865
					c-0.112-0.255-0.3-0.495-0.565-0.72c-0.264-0.224-0.608-0.44-1.032-0.648c-0.424-0.208-0.949-0.424-1.573-0.648l-1.056-0.384
					c-0.465-0.16-0.932-0.376-1.404-0.648c-0.473-0.272-0.901-0.6-1.285-0.985c-0.384-0.384-0.701-0.836-0.949-1.357
					c-0.248-0.52-0.372-1.108-0.372-1.765c0-0.672,0.132-1.301,0.396-1.885c0.264-0.584,0.64-1.096,1.129-1.537
					c0.489-0.44,1.073-0.784,1.753-1.032c0.68-0.248,1.437-0.372,2.269-0.372c0.865,0,1.613,0.116,2.246,0.348
					c0.632,0.232,1.168,0.528,1.609,0.888c0.44,0.36,0.796,0.757,1.068,1.188c0.272,0.433,0.472,0.84,0.601,1.225l-2.857,1.2
					c-0.161-0.48-0.453-0.913-0.877-1.297s-1.005-0.576-1.741-0.576c-0.705,0-1.289,0.164-1.753,0.492
					c-0.465,0.329-0.696,0.757-0.696,1.285c0,0.512,0.224,0.949,0.672,1.309c0.448,0.36,1.16,0.708,2.137,1.044l1.08,0.36
					c0.689,0.241,1.317,0.517,1.885,0.828c0.568,0.312,1.056,0.684,1.465,1.117c0.408,0.433,0.72,0.925,0.936,1.477
					c0.216,0.552,0.324,1.189,0.324,1.909c0,0.897-0.18,1.669-0.54,2.317c-0.36,0.648-0.821,1.181-1.38,1.597
					c-0.561,0.416-1.193,0.728-1.897,0.936C581.47,880.172,580.782,880.275,580.109,880.275z"/>
			</g>
			<g>
				<path style="fill:#FFFFFF;" d="M655.431,876.625l8.716-10.854h-8.332v-3.073h12.103v3.266l-8.621,10.854h8.716v3.073h-12.582
					V876.625z"/>
				<path style="fill:#FFFFFF;" d="M670.702,862.699h3.242v17.193h-3.242V862.699z"/>
				<path style="fill:#FFFFFF;" d="M677.402,879.891v-17.193h6.051c0.817,0,1.581,0.132,2.293,0.396
					c0.712,0.264,1.333,0.636,1.861,1.117s0.944,1.053,1.249,1.717c0.304,0.665,0.456,1.397,0.456,2.198
					c0,0.816-0.152,1.557-0.456,2.221c-0.305,0.664-0.721,1.236-1.249,1.717s-1.149,0.852-1.861,1.117
					c-0.713,0.264-1.477,0.396-2.293,0.396h-2.809v6.315H677.402z M683.501,870.503c0.848,0,1.489-0.241,1.921-0.721
					c0.433-0.48,0.648-1.032,0.648-1.656c0-0.304-0.052-0.601-0.156-0.889c-0.105-0.288-0.264-0.54-0.48-0.756
					c-0.216-0.217-0.484-0.388-0.805-0.516c-0.32-0.129-0.696-0.193-1.128-0.193h-2.857v4.731H683.501z"/>
			</g>
		</g>
		<g style="opacity:0.61;">
			<path style="fill:#FFFFFF;" d="M609.144,863.785h19.739v4.881h-19.739V863.785z M609.144,872.201h19.739v4.884h-19.739V872.201z"
				/>
		</g>
	</g>
	<g style="opacity:0.61;">
		<path style="fill:#FFFFFF;" d="M297,963.076h3.498c2.75,0,4.603,1.768,4.603,4.297s-1.854,4.296-4.603,4.296H297V963.076z
			 M300.449,970.883c2.283,0,3.756-1.448,3.756-3.51s-1.473-3.511-3.756-3.511h-2.541v7.021H300.449z"/>
		<path style="fill:#FFFFFF;" d="M315.251,967.373c0-2.504,1.915-4.37,4.517-4.37c2.577,0,4.505,1.853,4.505,4.37
			c0,2.516-1.927,4.369-4.505,4.369C317.166,971.742,315.251,969.877,315.251,967.373z M323.365,967.373
			c0-2.05-1.534-3.56-3.596-3.56c-2.075,0-3.621,1.51-3.621,3.56c0,2.049,1.546,3.559,3.621,3.559
			C321.831,970.932,323.365,969.422,323.365,967.373z"/>
		<path style="fill:#FFFFFF;" d="M346.724,963.076l-2.897,8.593h-0.957l-2.516-7.328l-2.529,7.328h-0.945l-2.897-8.593h0.933
			l2.479,7.389l2.566-7.389h0.847l2.529,7.426l2.516-7.426H346.724z"/>
		<path style="fill:#FFFFFF;" d="M364.435,963.076v8.593h-0.749l-5.524-6.972v6.972h-0.908v-8.593h0.749l5.536,6.973v-6.973H364.435
			z"/>
		<path style="fill:#FFFFFF;" d="M376.108,963.076h0.908v7.807h4.812v0.786h-5.72V963.076z"/>
		<path style="fill:#FFFFFF;" d="M391.279,967.373c0-2.504,1.915-4.37,4.517-4.37c2.577,0,4.505,1.853,4.505,4.37
			c0,2.516-1.927,4.369-4.505,4.369C393.194,971.742,391.279,969.877,391.279,967.373z M399.392,967.373
			c0-2.05-1.534-3.56-3.596-3.56c-2.075,0-3.621,1.51-3.621,3.56c0,2.049,1.546,3.559,3.621,3.559
			C397.858,970.932,399.392,969.422,399.392,967.373z"/>
		<path style="fill:#FFFFFF;" d="M416.478,969.374h-4.787l-1.031,2.295h-0.945l3.928-8.593h0.896l3.928,8.593h-0.957
			L416.478,969.374z M416.147,968.637l-2.062-4.615l-2.062,4.615H416.147z"/>
		<path style="fill:#FFFFFF;" d="M428.765,963.076h3.498c2.75,0,4.603,1.768,4.603,4.297s-1.854,4.296-4.603,4.296h-3.498V963.076z
			 M432.214,970.883c2.283,0,3.756-1.448,3.756-3.51s-1.473-3.511-3.756-3.511h-2.541v7.021H432.214z"/>
		<path style="fill:#FFFFFF;" d="M465.256,969.374h-4.787l-1.031,2.295h-0.945l3.928-8.593h0.896l3.928,8.593h-0.957
			L465.256,969.374z M464.925,968.637l-2.062-4.615l-2.062,4.615H464.925z"/>
		<path style="fill:#FFFFFF;" d="M477.543,963.076h0.908v7.807h4.812v0.786h-5.72V963.076z"/>
		<path style="fill:#FFFFFF;" d="M493.647,963.076h0.908v7.807h4.812v0.786h-5.72V963.076z"/>
		<path style="fill:#FFFFFF;" d="M522.749,963.862v3.376h4.443v0.786h-4.443v3.646h-0.909v-8.593h5.891v0.786H522.749z"/>
		<path style="fill:#FFFFFF;" d="M538.485,963.076h0.909v8.593h-0.909V963.076z"/>
		<path style="fill:#FFFFFF;" d="M551.067,963.076h0.909v7.807h4.811v0.786h-5.72V963.076z"/>
		<path style="fill:#FFFFFF;" d="M573.246,970.883v0.786h-6.076v-8.593h5.891v0.786h-4.983v3.056h4.443v0.774h-4.443v3.191H573.246z
			"/>
		<path style="fill:#FFFFFF;" d="M597.255,963.862v3.376h4.443v0.786h-4.443v3.646h-0.909v-8.593h5.891v0.786H597.255z"/>
		<path style="fill:#FFFFFF;" d="M612.119,967.373c0-2.504,1.915-4.37,4.517-4.37c2.577,0,4.505,1.853,4.505,4.37
			c0,2.516-1.927,4.369-4.505,4.369C614.034,971.742,612.119,969.877,612.119,967.373z M620.232,967.373
			c0-2.05-1.534-3.56-3.596-3.56c-2.075,0-3.622,1.51-3.622,3.56c0,2.049,1.547,3.559,3.622,3.559
			C618.698,970.932,620.232,969.422,620.232,967.373z"/>
		<path style="fill:#FFFFFF;" d="M637.919,971.669l-1.963-2.762c-0.222,0.024-0.442,0.037-0.688,0.037h-2.307v2.725h-0.909v-8.593
			h3.216c2.185,0,3.511,1.105,3.511,2.946c0,1.351-0.712,2.295-1.964,2.7l2.099,2.946H637.919z M637.871,966.022
			c0-1.375-0.909-2.161-2.627-2.161h-2.283v4.309h2.283C636.962,968.17,637.871,967.373,637.871,966.022z"/>
		<path style="fill:#FFFFFF;" d="M658.724,963.076v8.593h-0.871v-6.874l-3.376,5.782h-0.429l-3.376-5.745v6.837h-0.872v-8.593h0.749
			l3.732,6.371l3.695-6.371H658.724z"/>
		<path style="fill:#FFFFFF;" d="M675.787,969.374h-4.788l-1.031,2.295h-0.946l3.928-8.593h0.896l3.928,8.593h-0.957
			L675.787,969.374z M675.455,968.637l-2.062-4.615l-2.062,4.615H675.455z"/>
		<path style="fill:#FFFFFF;" d="M689.312,963.862h-3.02v-0.786h6.948v0.786h-3.02v7.807h-0.908V963.862z"/>
		<path style="fill:#FFFFFF;" d="M702.605,970.626l0.356-0.7c0.614,0.601,1.706,1.043,2.835,1.043c1.608,0,2.308-0.675,2.308-1.522
			c0-2.357-5.29-0.908-5.29-4.087c0-1.265,0.982-2.357,3.167-2.357c0.97,0,1.976,0.282,2.664,0.761l-0.307,0.724
			c-0.737-0.479-1.596-0.712-2.357-0.712c-1.571,0-2.271,0.7-2.271,1.559c0,2.357,5.29,0.933,5.29,4.063
			c0,1.265-1.006,2.344-3.204,2.344C704.508,971.742,703.243,971.288,702.605,970.626z"/>
	</g>
</g>
<g>
</g>
<g>
	<path style="fill:#C80000;" d="M467.611,343.542c1.614,2.482,3.217,4.97,4.843,7.444c15.123,23.007,30.249,46.011,45.378,69.013
		c0.178,0.271,0.293,0.602,0.615,0.772c0.341-0.094,0.538-0.377,0.777-0.593c25.232-22.759,50.46-45.522,75.688-68.284
		c2.77-2.499,5.543-4.995,8.305-7.504c0.283-0.257,0.669-0.433,0.787-0.849c48.665,0,97.33,0,145.995,0
		c-0.108,0.342-0.418,0.504-0.66,0.719c-31.656,28.14-63.315,56.276-94.974,84.412c-0.198,0.176-0.41,0.337-0.616,0.505
		c-0.215,0.086-0.419,0.215-0.657,0.217c-2.084,0.011-4.171,0.158-6.25-0.082c-0.637-0.414-0.079-0.678,0.157-0.904
		c1.664-1.586,3.412-3.079,5.129-4.606c3.358-2.989,6.717-5.977,10.082-8.959c3.315-2.938,6.624-5.882,9.936-8.822
		c3.263-2.896,6.521-5.797,9.782-8.696c3.335-2.965,6.672-5.927,10.009-8.891c3.261-2.897,6.521-5.797,9.782-8.695
		c3.336-2.964,6.668-5.931,10.009-8.89c2.742-2.429,5.46-4.886,8.2-7.316c3.339-2.961,6.672-5.928,10.009-8.891
		c1.905-1.692,3.822-3.372,5.729-5.117c-0.38-0.201-0.716-0.113-1.038-0.113c-42.597-0.005-85.195-0.002-127.792-0.02
		c-1.063,0-1.86,0.278-2.674,1.017c-4.438,4.028-8.9,8.03-13.35,12.045c-3.733,3.368-7.448,6.757-11.19,10.115
		c-4.387,3.936-8.749,7.899-13.142,11.828c-3.052,2.73-6.075,5.495-9.116,8.238c-3.066,2.766-6.135,5.527-9.207,8.286
		c-3.022,2.715-6.027,5.45-9.044,8.17c-3.116,2.809-6.224,5.627-9.355,8.421c-2.285,2.04-4.544,4.11-6.817,6.163
		c-1.458,1.317-2.928,2.62-4.381,3.942c-0.681,0.62-0.953,0.554-1.563-0.345c-2.734-4.025-5.358-8.122-8.043-12.18
		c-2.666-4.03-5.304-8.077-7.96-12.114c-6.63-10.077-13.246-20.164-19.886-30.234c-4.384-6.649-8.732-13.321-13.129-19.961
		c-0.571-0.862-1.117-1.738-1.666-2.613c-0.333-0.531-0.774-0.8-1.407-0.765c-0.332,0.018-0.666,0.002-1,0.002
		c-42.464,0-84.928,0-127.392,0.003c-0.394,0-0.796-0.071-1.187,0.069c-0.15,0.32,0.109,0.502,0.242,0.704
		c4.574,6.923,9.107,13.873,13.66,20.809c6.638,10.112,13.259,20.235,19.897,30.346c4.755,7.242,9.486,14.5,14.248,21.737
		c1.117,1.698,2.188,3.426,3.318,5.116c0.205,0.307,0.695,0.678,0.112,1.107c-1.525,0.252-3.056,0.118-4.585,0.087
		c-0.234-0.005-0.458-0.089-0.611-0.292c-0.11-0.357-0.353-0.636-0.553-0.941c-18.467-28.173-36.935-56.345-55.402-84.518
		c-0.018-0.027-0.026-0.061-0.039-0.092C372.947,343.542,420.279,343.542,467.611,343.542z"/>
	<path style="fill:#ECAAAA;" d="M398.393,656.228c0.007,0.076,0.013,0.151,0.02,0.227c-49.165,0-98.33,0-147.494,0
		c-0.233,0-0.467-0.011-0.7,0.002c-0.395,0.022-0.118-0.277-0.2-0.402c0.124-0.004,0.248-0.008,0.372-0.012
		c0.86-0.119,1.724-0.116,2.59-0.116c47.76,0.002,95.52,0.001,143.28,0.011C396.976,655.938,397.735,655.75,398.393,656.228z"/>
	<path style="fill:#ECAAAA;" d="M530.608,656.455c0-0.067,0.001-0.135,0.001-0.202c0.28-0.3,0.656-0.292,1.02-0.313
		c0.366-0.021,0.733-0.011,1.099-0.011c46.582,0,93.164-0.001,139.746,0.007c0.717,0,1.477-0.177,2.127,0.318c0,0.067,0,0.133,0,0.2
		C626.605,656.455,578.606,656.455,530.608,656.455z"/>
	<path style="fill:#02214F;" d="M646.639,429.101c1.943,0.011,3.886,0.02,5.829,0.034c0.427,0.003,0.855,0.027,1.282,0.042
		c-1.375,5.828-2.756,11.655-4.125,17.485c-3.506,14.932-7.006,29.865-10.512,44.797c-2.418,10.3-4.843,20.599-7.263,30.899
		c-0.03,0.127-0.035,0.261-0.064,0.495c20.272,0,40.509,0,60.702,0c0.19,0.363,0.053,0.607-0.005,0.855
		c-4.016,17.102-8.032,34.204-12.048,51.306c-0.038,0.162-0.07,0.326-0.095,0.491c-0.066,0.44-0.303,0.623-0.756,0.563
		c-0.262-0.035-0.532-0.006-0.799-0.006c-18.43,0-36.86,0-55.29,0.003c-0.431,0-0.867-0.054-1.293,0.06
		c-0.425,0.34-0.933,0.259-1.416,0.26c-1.211,0.003-2.423,0.035-3.633-0.02c-1.332,0.006-2.665-0.012-3.998,0.006
		c-0.279,0.004-0.661-0.156-0.809,0.178c-0.113,0.254,0.179,0.474,0.318,0.692c2.229,3.479,4.517,6.92,6.781,10.376
		c8.782,13.408,17.572,26.81,26.359,40.213c3.343,5.1,6.653,10.221,10.049,15.286c0.223,0.332,0.433,0.673,0.628,1.022
		c0.616,1.103,0.462,1.361-0.838,1.402c-0.366,0.012-0.733,0.004-1.1,0.004c-39.463,0-78.927-0.011-118.39,0.038
		c-1.72,0.002-2.71-0.567-3.634-1.982c-6.976-10.687-13.965-21.365-20.974-32.03c-5.143-7.825-10.272-15.658-15.402-23.491
		c-3.542-5.408-7.082-10.816-10.622-16.225c-0.267-0.407-0.734-0.845-0.455-1.342c0.247-0.442,0.838-0.311,1.296-0.315
		c1.633-0.013,3.266-0.004,4.9-0.005c1.867-0.001,3.733-0.016,5.599,0.007c0.76,0.009,1.13-0.283,1.309-1.041
		c2.59-10.994,5.152-21.995,7.745-32.988c0.388-1.643,0.496-1.766,2.207-1.767c19.132-0.003,38.263-0.002,57.395,0
		c2.641,0,2.165,0.081,2.674-2.066c2.976-12.546,5.907-25.103,8.85-37.657c0.441-1.882,0.72-1.896-1.513-1.896
		c-18.998,0.004-37.997,0.002-56.995,0.002c-2.28,0-2.375-0.119-1.863-2.315c0.749-3.212,1.518-6.42,2.261-9.634
		c0.342-1.479,0.525-1.617,2.034-1.617c23.131-0.004,46.263-0.003,69.394-0.002c0.133,0-0.033-0.002,0.1,0
		c1.462,0.021,1.575,0.172,1.275,1.567c-0.357,1.662-0.763,3.312-1.156,4.965c-2.498,10.502-4.943,21.017-7.411,31.527
		c-3.191,13.591-6.383,27.182-9.569,40.774c-0.852,3.633-1.691,7.269-2.561,10.898c-0.284,1.186-0.249,1.242,0.991,1.242
		c34.597,0.002,69.194,0.002,103.791-0.001c1.301,0,1.39-0.062,1.686-1.331c2.68-11.486,5.395-22.964,8.085-34.448
		c0.357-1.525,0.694-3.054,1.075-4.573c0.232-0.926,0.132-1.029-0.839-1.059c-0.3-0.009-0.6-0.002-0.9-0.002
		c-18.865,0-37.73,0-56.595,0c-2.316,0-2.347-0.054-1.82-2.311c3.964-16.969,7.962-33.93,11.939-50.896
		c2.684-11.451,5.37-22.902,8.071-34.349c0.421-1.783,0.832-3.57,1.262-5.351c0.162-0.672,0.043-0.953-0.674-0.872
		c-0.197,0.022-0.4,0.004-0.6,0.004c-42.196,0-84.393,0-126.589,0c-0.433,0-0.867,0.018-1.299-0.017
		c-0.327-0.026-0.717-0.009-0.854-0.385c-0.136-0.373,0.158-0.618,0.402-0.843c1.298-1.196,2.608-2.38,3.927-3.553
		c3.111-2.767,6.173-5.587,9.278-8.359c3.155-2.816,6.272-5.676,9.426-8.494c3.005-2.685,5.972-5.412,8.975-8.099
		c3.151-2.821,6.279-5.668,9.425-8.495c2.997-2.694,5.986-5.397,8.975-8.099c3.137-2.837,6.296-5.65,9.424-8.496
		c3.03-2.757,6.09-5.481,9.123-8.234c3.008-2.731,6.048-5.428,9.06-8.154c3.012-2.727,6.072-5.402,9.033-8.183
		c0.989-0.929,2.01-1.359,3.383-1.358c37.663,0.027,75.327,0.022,112.99,0.022c0.366,0,0.735-0.022,1.099,0.027
		c0.805,0.107,0.95,0.418,0.406,1.022c-0.758,0.841-1.663,1.535-2.509,2.286c-3.387,3.007-6.767,6.023-10.157,9.026
		c-3.914,3.468-7.817,6.947-11.73,10.417c-3.265,2.895-6.521,5.799-9.783,8.697c-3.935,3.495-7.867,6.992-11.801,10.487
		c-3.287,2.92-6.572,5.842-9.858,8.763c-3.908,3.474-7.819,6.946-11.728,10.419c-3.262,2.898-6.524,5.795-9.784,8.696
		c-1.493,1.328-2.995,2.646-4.475,3.989c-0.213,0.194-0.526,0.305-0.594,0.746c1.647,0.008,3.272-0.005,4.898,0.008
		C645.671,428.84,646.198,428.747,646.639,429.101z"/>
	<path style="fill:#C80000;" d="M616.936,576.128c1.755-0.09,3.511-0.083,5.267-0.006c6.147,9.385,12.291,18.771,18.441,28.153
		c11.15,17.012,22.304,34.021,33.45,51.036c0.194,0.297,0.497,0.545,0.51,0.943c-47.998-0.001-95.995-0.001-143.993-0.002
		c-8.856-13.504-17.712-27.007-26.567-40.511c-7.175-10.943-14.349-21.887-21.523-32.83c-0.182-0.277-0.368-0.551-0.545-0.816
		c-0.381-0.004-0.542,0.285-0.753,0.473c-22.789,20.249-45.575,40.502-68.361,60.755c-4.507,4.006-9.015,8.012-13.521,12.02
		c-0.322,0.287-0.632,0.589-0.947,0.883c-0.399,0.009-0.799,0.026-1.198,0.026c-48.501,0.001-97.002,0.002-145.503-0.012
		c-0.429,0-0.926,0.235-1.301-0.199c6.425-5.705,12.851-11.409,19.273-17.116c23.201-20.619,46.402-41.238,69.602-61.859
		c0.348-0.309,0.681-0.633,1.022-0.95c0.167-0.244,0.429-0.317,0.691-0.318c2.134-0.01,4.27-0.162,6.4,0.083
		c0.622,0.394,0.12,0.691-0.13,0.92c-1.765,1.623-3.568,3.205-5.362,4.795c-3.315,2.937-6.62,5.885-9.935,8.823
		c-3.365,2.982-6.722,5.972-10.083,8.957c-3.237,2.874-6.472,5.751-9.707,8.628c-3.359,2.988-6.722,5.971-10.082,8.958
		c-3.26,2.899-6.521,5.797-9.781,8.696c-3.335,2.965-6.671,5.929-10.008,8.891c-3.237,2.874-6.475,5.749-9.708,8.628
		c-2.635,2.347-5.288,4.674-7.939,7.072c0.292,0.235,0.593,0.132,0.862,0.132c43.395,0.005,86.791,0.003,130.186,0.018
		c0.95,0,1.725-0.207,2.452-0.858c2.704-2.421,5.42-4.83,8.137-7.237c3.365-2.981,6.724-5.968,10.083-8.956
		c3.26-2.899,6.519-5.798,9.78-8.696c3.335-2.964,6.674-5.924,10.008-8.889c3.259-2.899,6.519-5.798,9.78-8.696
		c3.335-2.964,6.671-5.928,10.008-8.89c2.665-2.365,5.325-4.735,7.988-7.102c3.335-2.964,6.666-5.933,10.008-8.89
		c2.519-2.228,5.007-4.492,7.555-6.687c1.068-0.921,1.183-0.92,1.967,0.275c5.01,7.632,10.004,15.275,15.019,22.904
		c5.968,9.076,11.909,18.17,17.877,27.246c5.18,7.879,10.338,15.773,15.497,23.666c0.372,0.569,0.824,0.834,1.486,0.799
		c0.299-0.016,0.6-0.001,0.9-0.001c43.095,0,86.191,0.001,129.286-0.01c0.474,0,1.146,0.268,1.381-0.218
		c0.185-0.383-0.367-0.802-0.617-1.185c-6.361-9.775-12.769-19.518-19.168-29.268c-5.137-7.828-10.275-15.655-15.396-23.494
		c-4.118-6.304-8.289-12.574-12.354-18.913C617.143,576.949,616.795,576.624,616.936,576.128z"/>
	<path style="fill:#CA0A0A;" d="M658.995,440.195c-0.43,0.652-0.486,1.418-0.714,2.135c-0.067,0.21-0.05,0.495-0.372,0.512
		c-0.369,0.019-0.407-0.285-0.471-0.534c-0.171-0.667-0.327-1.337-0.673-1.998c0,0.631,0.005,1.262-0.003,1.893
		c-0.004,0.284,0.081,0.651-0.394,0.638c-0.406-0.011-0.341-0.332-0.343-0.587c-0.008-1.23-0.013-2.461-0.012-3.691
		c0-0.288-0.069-0.621,0.411-0.624c0.395-0.003,0.689,0.017,0.796,0.517c0.179,0.838,0.319,1.692,0.695,2.627
		c0.225-0.959,0.446-1.779,0.601-2.612c0.09-0.486,0.362-0.549,0.774-0.534c0.467,0.016,0.418,0.334,0.419,0.627
		c0.004,1.23,0.002,2.461,0.001,3.691c0,0.1-0.002,0.2-0.016,0.298c-0.027,0.189-0.142,0.284-0.334,0.294
		c-0.255,0.014-0.359-0.124-0.361-0.358c-0.004-0.565-0.003-1.13-0.004-1.696C658.995,440.593,658.995,440.394,658.995,440.195z"/>
	<path style="fill:#CB0D0D;" d="M653.748,438.967c-0.189-0.122-0.393-0.071-0.585-0.082c-0.321-0.017-0.357-0.225-0.359-0.48
		c-0.002-0.262,0.055-0.462,0.372-0.462c0.7,0.001,1.399,0.001,2.099,0.003c0.252,0.001,0.351,0.148,0.34,0.383
		c-0.01,0.222,0.052,0.565-0.276,0.53c-0.893-0.097-0.733,0.505-0.734,1.014c-0.002,0.833-0.001,1.665-0.002,2.498
		c0,0.243-0.01,0.47-0.349,0.482c-0.378,0.014-0.433-0.211-0.432-0.512c0.005-0.799,0.009-1.599-0.003-2.398
		C653.813,439.616,653.891,439.279,653.748,438.967z"/>
	<path style="fill:#02214F;" d="M347.579,576.128c-2.431-0.094-4.861-0.076-7.292-0.01c-0.431-0.019-0.863-0.055-1.294-0.055
		c-20.863-0.003-41.726-0.002-62.589-0.002c-0.355,0-0.71,0-1.065,0c-0.028-0.061-0.056-0.123-0.084-0.184
		c29.906-26.348,59.813-52.695,89.74-79.061c-14.771-22.55-29.505-45.044-44.343-67.696c0.593,0,0.981,0,1.369,0
		c19.43,0,38.86,0,58.29-0.001c0.433,0,0.866-0.017,1.299-0.026c1.787,0.072,3.575,0.056,5.362,0.008
		c0.534-0.405,1.156-0.215,1.741-0.246c0.949-0.05,1.906,0.065,2.975-0.087c-0.466-0.765-0.867-1.445-1.304-2.104
		c-4.865-7.329-9.663-14.703-14.492-22.056c-6.53-9.943-13.043-19.897-19.565-29.845c-4.092-6.242-8.213-12.465-12.249-18.743
		c-0.144-0.224-0.306-0.439-0.415-0.683c-0.296-0.659-0.159-0.922,0.547-1.035c0.33-0.053,0.665-0.031,0.998-0.031
		c39.163-0.001,78.326,0.004,117.49-0.023c1.179-0.001,1.885,0.412,2.519,1.379c8.444,12.872,16.886,25.746,25.364,38.595
		c4.423,6.703,8.826,13.418,13.231,20.133c4.149,6.325,8.312,12.64,12.457,18.967c0.091,0.139,0.188,0.276,0.265,0.424
		c0.42,0.812,0.226,1.149-0.718,1.226c-0.398,0.032-0.8,0.013-1.199,0.013c-23.498,0-46.996,0.008-70.494-0.022
		c-1.299-0.002-2.243,0.409-3.198,1.276c-3.279,2.976-6.61,5.895-9.92,8.838c-2.762,2.456-5.519,4.918-8.274,7.382
		c-2.954,2.641-5.913,5.277-8.893,7.889c-0.693,0.607-0.991,0.559-1.585-0.312c-1.728-2.533-3.372-5.121-5.051-7.685
		c-3.175-4.851-6.334-9.713-9.526-14.553c-0.459-0.696-0.907-1.398-1.341-2.109c-0.381-0.625-0.908-0.95-1.655-0.906
		c-0.332,0.019-0.666,0.002-1,0.002c-20.732,0-41.463-0.001-62.195,0.005c-0.389,0-0.795-0.098-1.226,0.128
		c0.104,0.498,0.416,0.891,0.684,1.297c5.455,8.257,10.846,16.557,16.276,24.83c6.052,9.221,12.064,18.467,18.121,27.684
		c1.775,2.701,3.549,5.402,5.297,8.121c0.678,1.055,0.68,1.148-0.269,1.993c-4.924,4.386-9.905,8.709-14.84,13.081
		c-4.786,4.24-9.596,8.455-14.388,12.689c-4.118,3.638-8.26,7.25-12.383,10.883c-4.173,3.677-8.35,7.349-12.519,11.03
		c-3.619,3.196-7.259,6.37-10.88,9.565c-4.171,3.68-8.349,7.35-12.519,11.03c-1.113,0.982-2.198,1.992-3.398,2.977
		c0.421,0.171,0.724,0.108,1.019,0.108c22.165,0.003,44.329-0.004,66.494,0.024c1.149,0.001,2.045-0.317,2.886-1.071
		c5.33-4.78,10.712-9.503,16.081-14.24c4.895-4.318,9.774-8.655,14.685-12.954c1.679-1.469,3.325-2.977,5.027-4.42
		c0.862-0.731,1.097-0.656,1.718,0.288c4.486,6.821,8.993,13.628,13.5,20.436c2.336,3.529,4.684,7.05,6.984,10.602
		c0.635,0.98,1.347,1.363,2.521,1.361c19.232-0.032,38.463-0.023,57.695-0.022c0.433,0,0.869-0.031,1.299,0.027
		c0.753,0.101,0.879,0.381,0.373,0.963c-0.832,0.959-1.854,1.72-2.799,2.561c-3.383,3.011-6.761,6.027-10.155,9.026
		c-3.393,2.999-6.768,6.018-10.15,9.03c-3.282,2.923-6.566,5.846-9.851,8.765c-3.31,2.942-6.621,5.884-9.936,8.82
		c-2.617,2.319-5.227,4.645-7.841,6.968c-3.385,3.009-6.769,6.018-10.156,9.025c-2.615,2.322-5.228,4.645-7.841,6.968
		c-3.385,3.009-6.761,6.027-10.16,9.02c-1.325,1.166-2.622,2.363-3.96,3.515c-0.514,0.443-1.065,0.657-1.731,0.627
		c-0.266-0.012-0.533,0-0.8,0c-38.33,0-76.66,0-114.99,0c-0.3,0-0.6,0.01-0.9-0.005c-0.36-0.019-0.821,0.067-0.994-0.304
		c-0.181-0.388,0.204-0.668,0.452-0.922c0.885-0.906,1.871-1.704,2.816-2.545c3.358-2.988,6.717-5.976,10.081-8.958
		c3.314-2.938,6.622-5.883,9.936-8.82c2.667-2.363,5.324-4.736,7.987-7.104c3.335-2.965,6.671-5.928,10.007-8.891
		c2.664-2.366,5.326-4.735,7.989-7.102c3.335-2.964,6.668-5.931,10.008-8.89c2.617-2.319,5.227-4.645,7.842-6.966
		c2.814-2.498,5.613-5.013,8.443-7.492c0.367-0.321,0.768-0.615,1.086-1.174c-1.804-0.016-3.496,0.003-5.188-0.012
		C348.467,576.338,347.989,576.429,347.579,576.128z"/>
	<path style="fill:#FFFFFF;" d="M347.579,576.128c2.388-0.155,4.775-0.012,7.215,0.021c-25.754,23.034-51.564,45.966-77.36,68.9
		c0.16,0.339,0.425,0.174,0.63,0.2c0.23,0.029,0.466,0.007,0.699,0.007c38.696,0,77.391-0.003,116.087,0.02
		c0.902,0.001,1.543-0.265,2.207-0.855c27.31-24.3,54.635-48.583,81.957-72.868c0.315-0.28,0.627-0.564,0.883-1.029
		c-0.35,0-0.7,0-1.051,0c-19.698,0-39.396-0.005-59.093,0.019c-0.823,0.001-1.301-0.223-1.765-0.929
		c-6.932-10.549-13.898-21.074-20.858-31.605c-0.183-0.277-0.375-0.548-0.609-0.89c-0.319,0.27-0.618,0.515-0.907,0.77
		c-12.063,10.655-24.128,21.308-36.176,31.98c-0.542,0.48-1.073,0.655-1.782,0.655c-22.564-0.016-45.128-0.013-67.692-0.017
		c-0.356,0-0.721,0.067-1.161-0.089c0.241-0.393,0.6-0.624,0.905-0.892c10.852-9.559,21.709-19.114,32.564-28.67
		c16.007-14.092,32.014-28.185,48.021-42.277c0.1-0.088,0.19-0.192,0.301-0.262c0.41-0.259,0.368-0.521,0.112-0.899
		c-0.97-1.434-1.905-2.892-2.853-4.341c-12.51-19.117-25.021-38.233-37.528-57.352c-0.216-0.33-0.488-0.63-0.6-1.024
		c0.168-0.264,0.426-0.139,0.634-0.139c21.564-0.006,43.129-0.002,64.693-0.024c0.671-0.001,1.008,0.248,1.347,0.767
		c5.31,8.147,10.635,16.284,15.961,24.421c0.197,0.301,0.338,0.649,0.665,0.886c0.305-0.068,0.481-0.325,0.695-0.516
		c9.292-8.256,18.585-16.51,27.86-24.784c0.537-0.479,1.062-0.672,1.778-0.671c24.031,0.017,48.061,0.014,72.092,0.014
		c0.386,0,0.771,0,1.146,0c0.048-0.458-0.213-0.657-0.369-0.895c-17.193-26.162-34.393-52.32-51.573-78.49
		c-0.364-0.554-0.745-0.71-1.373-0.71c-39.629,0.014-79.258,0.013-118.887,0.013c-0.233,0-0.466,0-0.723,0
		c-0.128,0.445,0.212,0.691,0.394,0.969c4.611,7.052,9.234,14.096,13.853,21.143c11.246,17.158,22.492,34.316,33.736,51.476
		c0.177,0.27,0.406,0.515,0.507,0.942c-1.76,0-3.475,0-5.19,0c-4.56-6.965-9.116-13.931-13.68-20.894
		c-12.669-19.329-25.34-38.657-38.009-57.985c-0.214-0.327-0.416-0.662-0.667-1.063c0.457-0.147,0.849-0.089,1.23-0.089
		c13.099-0.003,26.197-0.003,39.296-0.003c29.763,0,59.527,0,89.29,0c0.2,0,0.405,0.03,0.599-0.005
		c0.665-0.121,1.013,0.221,1.356,0.747c3.385,5.187,6.793,10.359,10.196,15.535c13.537,20.592,27.075,41.183,40.612,61.774
		c0.164,0.25,0.331,0.497,0.488,0.733c0.349,0.035,0.489-0.233,0.674-0.401c28.262-25.484,56.519-50.973,84.782-76.457
		c0.714-0.644,1.313-1.547,2.203-1.831c0.85-0.271,1.846-0.093,2.779-0.093c42.295-0.002,84.59-0.002,126.886-0.002
		c0.432,0,0.863,0,1.354,0c-0.072,0.425-0.393,0.572-0.621,0.775c-9.935,8.836-19.873,17.668-29.811,26.5
		c-19.576,17.4-39.152,34.8-58.727,52.202c-0.197,0.175-0.375,0.371-0.562,0.557c-2.362,0-4.723,0-7.101,0
		c0.087-0.139-0.016,0.016-0.025-0.116c-0.002-0.026,0.011-0.061,0.029-0.08c0.092-0.096,0.184-0.193,0.283-0.281
		c27.666-24.602,55.332-49.203,82.997-73.805c0.023-0.02,0.03-0.059,0.071-0.145c-0.33-0.192-0.693-0.097-1.029-0.097
		c-15.499-0.006-30.997-0.005-46.496-0.005c-22.498,0-44.996,0.007-67.494-0.021c-1.036-0.001-1.791,0.278-2.564,0.977
		c-25.596,23.118-51.213,46.213-76.827,69.312c-3.341,3.013-6.682,6.026-10.023,9.039c-0.215,0.194-0.429,0.389-0.825,0.748
		c43.691,0,87.129,0,130.643,0c-0.051,0.996-0.345,1.841-0.545,2.696c-3.759,16.036-7.536,32.068-11.301,48.102
		c-3.293,14.026-6.576,28.055-9.864,42.083c-0.045,0.194-0.104,0.386-0.142,0.581c-0.04,0.206,0.07,0.313,0.267,0.32
		c0.3,0.011,0.6,0.01,0.9,0.01c19.465,0,38.93,0,58.395,0c0.392,0,0.784,0,1.231,0c-0.125,1.165-0.439,2.18-0.679,3.206
		c-2.967,12.667-5.95,25.331-8.927,37.995c-0.211,0.899-0.209,0.903-1.17,0.903c-35.03,0.001-70.06,0.001-105.091-0.003
		c-0.294,0-0.6,0.068-0.954-0.124c7.104-30.26,14.212-60.538,21.315-90.794c-0.32-0.241-0.631-0.15-0.92-0.15
		c-23.431-0.005-46.862-0.004-70.294-0.004c-0.931,0-0.934,0.003-1.153,0.928c-0.896,3.789-1.791,7.577-2.682,11.367
		c-0.053,0.224-0.067,0.457-0.116,0.801c20.418,0,40.793,0,61.277,0c-0.308,1.352-0.579,2.578-0.866,3.8
		c-2.927,12.471-5.857,24.942-8.787,37.413c-0.046,0.194-0.125,0.384-0.147,0.58c-0.035,0.305-0.219,0.373-0.481,0.369
		c-0.267-0.005-0.533,0-0.8,0c-19.598,0-39.196,0-58.795,0c-0.2,0-0.4-0.002-0.6,0c-0.785,0.008-0.792,0.007-0.972,0.769
		c-1.792,7.611-3.583,15.223-5.372,22.835c-0.883,3.757-1.76,7.516-2.641,11.274c-0.22,0.938-0.223,0.94-1.244,0.94
		c-3.965,0.001-7.931,0-11.929,0c-0.053,0.48,0.293,0.749,0.498,1.062c6.985,10.673,13.979,21.34,20.973,32.008
		c8.91,13.592,17.826,27.181,26.716,40.787c0.436,0.668,0.896,0.892,1.68,0.892c40.196-0.019,80.393-0.017,120.589-0.017
		c0.352,0,0.705,0,1.234,0c-15.151-23.113-30.201-46.073-45.362-69.202c1.923,0.04,3.666-0.066,5.412,0.075
		c1.776,2.737,3.54,5.48,5.328,8.209c14.221,21.697,28.448,43.391,42.668,65.089c0.247,0.377,0.558,0.728,0.697,1.201
		c-0.397,0.181-0.764,0.101-1.117,0.101c-43.73,0.005-87.461,0.002-131.191,0.021c-0.749,0-1.183-0.205-1.605-0.85
		c-16.157-24.689-32.337-49.363-48.515-74.038c-0.199-0.304-0.404-0.604-0.598-0.892c-0.334,0.071-0.483,0.305-0.673,0.474
		c-27.9,24.791-55.799,49.583-83.681,74.394c-0.72,0.641-1.424,0.915-2.389,0.915c-43.564-0.021-87.128-0.018-130.691-0.022
		c-0.393,0-0.793,0.069-1.24-0.08c0.131-0.34,0.431-0.503,0.665-0.711c26.998-24,53.999-47.997,80.998-71.996
		C346.262,577.347,346.917,576.733,347.579,576.128z"/>
	<path style="fill:#C70000;" d="M512.077,497.293c20.295,0,40.554,0,60.918,0c-0.366,1.588-0.709,3.099-1.063,4.606
		c-2.108,8.973-4.213,17.946-6.333,26.915c-0.284,1.204-0.074,1.031-1.269,1.031c-19.532,0.004-39.063,0.003-58.595,0.003
		c-1.295,0-1.301-0.001-1.594,1.245c-2.639,11.206-5.275,22.413-7.912,33.619c-0.046,0.194-0.097,0.387-0.137,0.583
		c-0.055,0.27-0.207,0.39-0.488,0.371c-0.232-0.016-0.466-0.002-0.7-0.002c-24.431,0-48.862-0.004-73.294,0.017
		c-0.752,0.001-1.185-0.208-1.604-0.85c-7.305-11.179-14.638-22.339-21.969-33.502c-0.197-0.3-0.333-0.653-0.674-0.877
		c-0.353,0.131-0.579,0.429-0.845,0.665c-12.732,11.308-25.461,22.617-38.181,33.939c-0.476,0.424-0.943,0.622-1.594,0.621
		c-18.632-0.017-37.263-0.014-55.895-0.014c-0.265,0-0.53,0-0.876,0c0.148-0.417,0.48-0.593,0.736-0.817
		c14.487-12.692,28.978-25.38,43.468-38.068c10.529-9.22,21.059-18.439,31.589-27.659c0.1-0.088,0.194-0.185,0.303-0.26
		c0.338-0.231,0.378-0.468,0.13-0.821c-0.537-0.762-1.033-1.552-1.544-2.332c-12.052-18.38-24.103-36.761-36.154-55.142
		c-0.214-0.326-0.412-0.664-0.621-1.002c0.359-0.238,0.698-0.139,1.014-0.139c17.898-0.006,35.797,0,53.695-0.023
		c0.762-0.001,1.188,0.234,1.602,0.869c5.637,8.649,11.303,17.278,16.962,25.913c0.251,0.383,0.504,0.764,0.755,1.145
		c0.399-0.148,0.611-0.415,0.856-0.629c10.102-8.848,20.206-17.694,30.291-26.561c0.593-0.522,1.179-0.732,1.962-0.732
		c51.629,0.015,103.258,0.014,154.887,0.014c1.421,0,1.428,0.002,1.11,1.356c-2.564,10.916-5.13,21.832-7.697,32.748
		c-0.256,1.089-0.263,1.089-1.339,1.087c-16.632-0.03-33.263-0.063-49.895-0.09c-7.899-0.013-15.799-0.015-23.698-0.021
		c-0.1,0-0.202,0.012-0.3-0.002c-0.516-0.07-0.766,0.12-0.875,0.664c-0.268,1.337-0.607,2.66-0.919,3.988
		c-1.346,5.734-2.693,11.467-4.036,17.201C512.188,496.639,512.144,496.935,512.077,497.293z"/>
	<path style="fill:#C80000;" d="M621.692,533.221c20.199,0,40.415,0,60.726,0c-0.372,1.619-0.714,3.136-1.07,4.649
		c-2.109,8.971-4.222,17.941-6.332,26.912c-0.215,0.915-0.214,0.918-1.15,0.918c-32.36,0-64.719,0-97.079,0
		c-0.264,0-0.527,0-0.817,0c-0.077-0.624,0.152-1.149,0.276-1.678c5.434-23.158,10.884-46.313,16.322-69.471
		c4.229-18.008,8.445-36.019,12.666-54.029c0.258-1.102,0.257-1.103,1.428-1.103c11.897,0,23.795,0,35.692,0
		c1.149,0,1.153,0.003,0.889,1.127c-4.19,17.846-8.38,35.692-12.571,53.538c-3.004,12.793-6.008,25.587-9.009,38.381
		C621.618,532.654,621.537,532.848,621.692,533.221z"/>
	<path style="fill:#FFFFFF;" d="M484.369,453.295c-7.18,30.603-14.326,61.066-21.49,91.604c-0.38-0.178-0.481-0.465-0.63-0.692
		c-9.693-14.783-19.382-29.568-29.071-44.354c-0.518-0.791-0.651-0.634,0.23-1.417c13.544-12.04,27.089-24.079,40.634-36.118
		c3.137-2.788,6.273-5.578,9.414-8.363C483.698,453.738,483.907,453.469,484.369,453.295z"/>
	<path style="fill:#02214F;" d="M478.664,463.781c-5.655,24.085-11.281,48.046-16.907,72.01c-0.369-0.038-0.431-0.34-0.567-0.547
		c-7.601-11.584-15.198-23.17-22.792-34.759c-0.503-0.767-0.566-0.573,0.279-1.324c8.167-7.265,16.337-14.526,24.507-21.788
		c4.857-4.317,9.713-8.636,14.574-12.949C478,464.208,478.199,463.924,478.664,463.781z"/>
</g>
</svg>
